<mxfile host="app.diagrams.net" modified="2020-04-14T08:34:06.927Z" agent="5.0 (Windows NT 10.0; Win64; x64) AppleWebKit/537.36 (KHTML, like Gecko) Chrome/80.0.3987.163 Safari/537.36" etag="4uPoZPmJ6_vDafuqFbun" version="12.9.12" type="github">
  <diagram id="5PWfzPO6Jx__woqUqDD8" name="第 1 页">
    <mxGraphModel dx="1038" dy="548" grid="0" gridSize="10" guides="1" tooltips="1" connect="1" arrows="1" fold="1" page="1" pageScale="1" pageWidth="1169" pageHeight="827" math="0" shadow="0">
      <root>
        <mxCell id="0" />
        <mxCell id="1" parent="0" />
        <mxCell id="paidQJaRsskB8B8FcKxI-12" style="edgeStyle=orthogonalEdgeStyle;curved=1;rounded=0;orthogonalLoop=1;jettySize=auto;html=1;exitX=0;exitY=0.5;exitDx=0;exitDy=0;entryX=0.5;entryY=0;entryDx=0;entryDy=0;" parent="1" source="IvzAqMO07szKVlFFw1jY-4" target="IvzAqMO07szKVlFFw1jY-19" edge="1">
          <mxGeometry relative="1" as="geometry" />
        </mxCell>
        <mxCell id="paidQJaRsskB8B8FcKxI-32" value="&lt;font color=&quot;#ff0000&quot;&gt;采购&lt;/font&gt;" style="text;html=1;align=center;verticalAlign=middle;resizable=0;points=[];labelBackgroundColor=#ffffff;fontSize=17;fontStyle=1" parent="paidQJaRsskB8B8FcKxI-12" vertex="1" connectable="0">
          <mxGeometry x="-0.2522" y="92" relative="1" as="geometry">
            <mxPoint x="16" y="5" as="offset" />
          </mxGeometry>
        </mxCell>
        <mxCell id="paidQJaRsskB8B8FcKxI-13" style="edgeStyle=orthogonalEdgeStyle;curved=1;rounded=0;orthogonalLoop=1;jettySize=auto;html=1;exitX=1;exitY=0.5;exitDx=0;exitDy=0;entryX=0.5;entryY=0;entryDx=0;entryDy=0;" parent="1" source="IvzAqMO07szKVlFFw1jY-4" target="IvzAqMO07szKVlFFw1jY-13" edge="1">
          <mxGeometry relative="1" as="geometry" />
        </mxCell>
        <mxCell id="paidQJaRsskB8B8FcKxI-33" value="&lt;font&gt;采购&lt;/font&gt;" style="text;html=1;align=center;verticalAlign=middle;resizable=0;points=[];labelBackgroundColor=#ffffff;fontSize=17;fontStyle=1;fontColor=#FF8000;" parent="paidQJaRsskB8B8FcKxI-13" vertex="1" connectable="0">
          <mxGeometry x="-0.2072" y="-102" relative="1" as="geometry">
            <mxPoint x="-22" y="2" as="offset" />
          </mxGeometry>
        </mxCell>
        <mxCell id="paidQJaRsskB8B8FcKxI-15" style="edgeStyle=orthogonalEdgeStyle;curved=1;rounded=0;orthogonalLoop=1;jettySize=auto;html=1;exitX=0.5;exitY=1;exitDx=0;exitDy=0;" parent="1" source="IvzAqMO07szKVlFFw1jY-4" target="IvzAqMO07szKVlFFw1jY-5" edge="1">
          <mxGeometry relative="1" as="geometry">
            <Array as="points">
              <mxPoint x="540" y="230" />
              <mxPoint x="540" y="230" />
            </Array>
          </mxGeometry>
        </mxCell>
        <mxCell id="paidQJaRsskB8B8FcKxI-35" value="采购" style="text;html=1;align=center;verticalAlign=middle;resizable=0;points=[];labelBackgroundColor=#ffffff;fontSize=17;fontStyle=1;fontColor=#FF8000;" parent="paidQJaRsskB8B8FcKxI-15" vertex="1" connectable="0">
          <mxGeometry x="-0.2467" relative="1" as="geometry">
            <mxPoint as="offset" />
          </mxGeometry>
        </mxCell>
        <mxCell id="IvzAqMO07szKVlFFw1jY-4" value="&lt;b&gt;&lt;font style=&quot;font-size: 20px&quot;&gt;Supplier&lt;/font&gt;&lt;/b&gt;" style="ellipse;whiteSpace=wrap;html=1;" parent="1" vertex="1">
          <mxGeometry x="480" y="70" width="120" height="90" as="geometry" />
        </mxCell>
        <mxCell id="IvzAqMO07szKVlFFw1jY-5" value="&lt;b&gt;&lt;font style=&quot;font-size: 20px&quot;&gt;Warehouse&lt;/font&gt;&lt;/b&gt;" style="shape=mxgraph.cisco.buildings.small_business;html=1;dashed=0;fillColor=#036897;strokeColor=#ffffff;strokeWidth=2;verticalLabelPosition=top;verticalAlign=bottom;align=left;horizontal=1;labelPosition=right;" parent="1" vertex="1">
          <mxGeometry x="491" y="280" width="98" height="54" as="geometry" />
        </mxCell>
        <mxCell id="IvzAqMO07szKVlFFw1jY-13" value="&lt;font style=&quot;font-size: 20px&quot;&gt;Pub&lt;/font&gt;" style="rounded=1;whiteSpace=wrap;html=1;fontStyle=1" parent="1" vertex="1">
          <mxGeometry x="880" y="500" width="120" height="60" as="geometry" />
        </mxCell>
        <mxCell id="IvzAqMO07szKVlFFw1jY-19" value="&lt;font style=&quot;font-size: 20px&quot;&gt;Studio&lt;/font&gt;" style="rounded=1;whiteSpace=wrap;html=1;fontStyle=1" parent="1" vertex="1">
          <mxGeometry x="90" y="500" width="120" height="60" as="geometry" />
        </mxCell>
        <mxCell id="paidQJaRsskB8B8FcKxI-9" value="" style="endArrow=classic;startArrow=classic;html=1;exitX=1;exitY=0.5;exitDx=0;exitDy=0;entryX=0;entryY=0.5;entryDx=0;entryDy=0;" parent="1" source="IvzAqMO07szKVlFFw1jY-19" target="IvzAqMO07szKVlFFw1jY-13" edge="1">
          <mxGeometry width="50" height="50" relative="1" as="geometry">
            <mxPoint x="524" y="530" as="sourcePoint" />
            <mxPoint x="600" y="530" as="targetPoint" />
          </mxGeometry>
        </mxCell>
        <mxCell id="paidQJaRsskB8B8FcKxI-29" value="&lt;font style=&quot;font-size: 17px&quot;&gt;&lt;b&gt;调货&lt;/b&gt;&lt;/font&gt;" style="text;html=1;align=center;verticalAlign=middle;resizable=0;points=[];labelBackgroundColor=#ffffff;horizontal=1;" parent="paidQJaRsskB8B8FcKxI-9" vertex="1" connectable="0">
          <mxGeometry x="0.0373" y="-1" relative="1" as="geometry">
            <mxPoint x="-17.5" y="-1" as="offset" />
          </mxGeometry>
        </mxCell>
        <mxCell id="paidQJaRsskB8B8FcKxI-23" value="" style="endArrow=classic;startArrow=classic;html=1;exitX=0.97;exitY=0.9;exitDx=0;exitDy=0;exitPerimeter=0;entryX=0;entryY=0;entryDx=0;entryDy=0;" parent="1" source="IvzAqMO07szKVlFFw1jY-5" target="IvzAqMO07szKVlFFw1jY-13" edge="1">
          <mxGeometry width="50" height="50" relative="1" as="geometry">
            <mxPoint x="730" y="430" as="sourcePoint" />
            <mxPoint x="780" y="380" as="targetPoint" />
          </mxGeometry>
        </mxCell>
        <mxCell id="paidQJaRsskB8B8FcKxI-31" value="配送" style="text;html=1;align=center;verticalAlign=middle;resizable=0;points=[];autosize=1;fontStyle=1;fontSize=17;rotation=30;" parent="1" vertex="1">
          <mxGeometry x="710" y="380" width="50" height="30" as="geometry" />
        </mxCell>
        <mxCell id="paidQJaRsskB8B8FcKxI-37" value="返仓" style="text;html=1;align=center;verticalAlign=middle;resizable=0;points=[];autosize=1;fontStyle=1;fontSize=17;rotation=30;" parent="1" vertex="1">
          <mxGeometry x="690" y="410" width="50" height="30" as="geometry" />
        </mxCell>
        <mxCell id="paidQJaRsskB8B8FcKxI-30" value="配送" style="text;html=1;align=center;verticalAlign=middle;resizable=0;points=[];autosize=1;fontStyle=1;fontSize=17;rotation=-30;" parent="1" vertex="1">
          <mxGeometry x="320" y="380" width="50" height="30" as="geometry" />
        </mxCell>
        <mxCell id="paidQJaRsskB8B8FcKxI-39" value="" style="group" parent="1" vertex="1" connectable="0">
          <mxGeometry x="340" y="410" width="50" height="30" as="geometry" />
        </mxCell>
        <mxCell id="paidQJaRsskB8B8FcKxI-22" value="" style="endArrow=classic;startArrow=classic;html=1;entryX=0.04;entryY=0.9;entryDx=0;entryDy=0;entryPerimeter=0;exitX=1;exitY=0;exitDx=0;exitDy=0;" parent="paidQJaRsskB8B8FcKxI-39" source="IvzAqMO07szKVlFFw1jY-19" target="IvzAqMO07szKVlFFw1jY-5" edge="1">
          <mxGeometry width="50" height="50" relative="1" as="geometry">
            <mxPoint x="-30" y="40" as="sourcePoint" />
            <mxPoint x="20" y="-10" as="targetPoint" />
          </mxGeometry>
        </mxCell>
        <mxCell id="paidQJaRsskB8B8FcKxI-36" value="返仓" style="text;html=1;align=center;verticalAlign=middle;resizable=0;points=[];autosize=1;fontStyle=1;fontSize=17;rotation=-30;" parent="paidQJaRsskB8B8FcKxI-39" vertex="1">
          <mxGeometry width="50" height="30" as="geometry" />
        </mxCell>
        <mxCell id="ssmvnQJbBFKJemoLIA-i-1" value="采购流程图" style="swimlane;html=1;childLayout=stackLayout;startSize=20;rounded=0;shadow=0;labelBackgroundColor=none;strokeWidth=1;fontFamily=Verdana;fontSize=8;align=center;" vertex="1" parent="1">
          <mxGeometry x="130" y="601" width="962" height="750" as="geometry" />
        </mxCell>
        <mxCell id="ssmvnQJbBFKJemoLIA-i-2" value="各部门" style="swimlane;html=1;startSize=20;" vertex="1" parent="ssmvnQJbBFKJemoLIA-i-1">
          <mxGeometry y="20" width="192" height="730" as="geometry" />
        </mxCell>
        <mxCell id="ssmvnQJbBFKJemoLIA-i-3" style="edgeStyle=orthogonalEdgeStyle;rounded=0;orthogonalLoop=1;jettySize=auto;html=1;exitX=0.5;exitY=1;exitDx=0;exitDy=0;entryX=0.5;entryY=0;entryDx=0;entryDy=0;" edge="1" parent="ssmvnQJbBFKJemoLIA-i-2" source="ssmvnQJbBFKJemoLIA-i-4" target="ssmvnQJbBFKJemoLIA-i-6">
          <mxGeometry relative="1" as="geometry" />
        </mxCell>
        <mxCell id="ssmvnQJbBFKJemoLIA-i-4" value="提交采购申请单" style="rounded=1;whiteSpace=wrap;html=1;shadow=0;labelBackgroundColor=none;strokeWidth=1;fontFamily=Verdana;fontSize=14;align=center;fontStyle=0" vertex="1" parent="ssmvnQJbBFKJemoLIA-i-2">
          <mxGeometry x="38.5" y="120" width="115" height="60" as="geometry" />
        </mxCell>
        <mxCell id="ssmvnQJbBFKJemoLIA-i-5" style="edgeStyle=orthogonalEdgeStyle;rounded=0;orthogonalLoop=1;jettySize=auto;html=1;exitX=0.5;exitY=1;exitDx=0;exitDy=0;entryX=0;entryY=0.5;entryDx=0;entryDy=0;fontSize=14;" edge="1" parent="ssmvnQJbBFKJemoLIA-i-2" source="ssmvnQJbBFKJemoLIA-i-6" target="ssmvnQJbBFKJemoLIA-i-4">
          <mxGeometry relative="1" as="geometry">
            <Array as="points">
              <mxPoint x="96" y="450" />
              <mxPoint x="19" y="450" />
              <mxPoint x="19" y="150" />
            </Array>
          </mxGeometry>
        </mxCell>
        <mxCell id="ssmvnQJbBFKJemoLIA-i-6" value="部门领导审核" style="rhombus;whiteSpace=wrap;html=1;fontStyle=0;fontSize=14;" vertex="1" parent="ssmvnQJbBFKJemoLIA-i-2">
          <mxGeometry x="41" y="245" width="110" height="80" as="geometry" />
        </mxCell>
        <mxCell id="ssmvnQJbBFKJemoLIA-i-7" value="不通过" style="text;html=1;align=center;verticalAlign=middle;resizable=0;points=[];autosize=1;fontSize=14;" vertex="1" parent="ssmvnQJbBFKJemoLIA-i-2">
          <mxGeometry x="93" y="388" width="60" height="20" as="geometry" />
        </mxCell>
        <mxCell id="ssmvnQJbBFKJemoLIA-i-8" value="进销存部门" style="swimlane;html=1;startSize=20;flipH=1;flipV=0;" vertex="1" parent="ssmvnQJbBFKJemoLIA-i-1">
          <mxGeometry x="192" y="20" width="192" height="730" as="geometry" />
        </mxCell>
        <mxCell id="ssmvnQJbBFKJemoLIA-i-9" value="生成采购单" style="rounded=1;whiteSpace=wrap;html=1;shadow=0;labelBackgroundColor=none;strokeWidth=1;fontFamily=Verdana;fontSize=14;align=center;fontStyle=0" vertex="1" parent="ssmvnQJbBFKJemoLIA-i-8">
          <mxGeometry x="51" y="130" width="100" height="60" as="geometry" />
        </mxCell>
        <mxCell id="ssmvnQJbBFKJemoLIA-i-10" style="edgeStyle=orthogonalEdgeStyle;rounded=0;orthogonalLoop=1;jettySize=auto;html=1;exitX=0.5;exitY=0;exitDx=0;exitDy=0;fontSize=14;" edge="1" parent="ssmvnQJbBFKJemoLIA-i-8" source="ssmvnQJbBFKJemoLIA-i-11" target="ssmvnQJbBFKJemoLIA-i-9">
          <mxGeometry relative="1" as="geometry" />
        </mxCell>
        <mxCell id="ssmvnQJbBFKJemoLIA-i-11" value="进销存审核" style="rhombus;whiteSpace=wrap;html=1;fontStyle=0;fontSize=14;" vertex="1" parent="ssmvnQJbBFKJemoLIA-i-8">
          <mxGeometry x="46" y="240" width="110" height="90" as="geometry" />
        </mxCell>
        <mxCell id="ssmvnQJbBFKJemoLIA-i-12" value="不通过" style="text;html=1;align=center;verticalAlign=middle;resizable=0;points=[];autosize=1;fontSize=14;" vertex="1" parent="ssmvnQJbBFKJemoLIA-i-8">
          <mxGeometry x="108" y="388" width="60" height="20" as="geometry" />
        </mxCell>
        <mxCell id="ssmvnQJbBFKJemoLIA-i-13" value="财务" style="swimlane;html=1;startSize=20;" vertex="1" parent="ssmvnQJbBFKJemoLIA-i-1">
          <mxGeometry x="384" y="20" width="192" height="730" as="geometry" />
        </mxCell>
        <mxCell id="ssmvnQJbBFKJemoLIA-i-14" value="财务审核" style="rhombus;whiteSpace=wrap;html=1;fontStyle=0;fontSize=14;" vertex="1" parent="ssmvnQJbBFKJemoLIA-i-13">
          <mxGeometry x="42" y="120" width="110" height="80" as="geometry" />
        </mxCell>
        <mxCell id="ssmvnQJbBFKJemoLIA-i-15" value="不通过" style="text;html=1;align=center;verticalAlign=middle;resizable=0;points=[];autosize=1;fontSize=14;" vertex="1" parent="ssmvnQJbBFKJemoLIA-i-13">
          <mxGeometry x="96" y="388" width="60" height="20" as="geometry" />
        </mxCell>
        <mxCell id="ssmvnQJbBFKJemoLIA-i-16" value="总经理" style="swimlane;html=1;startSize=20;" vertex="1" parent="ssmvnQJbBFKJemoLIA-i-1">
          <mxGeometry x="576" y="20" width="192" height="730" as="geometry" />
        </mxCell>
        <mxCell id="ssmvnQJbBFKJemoLIA-i-17" value="总经理审核" style="rhombus;whiteSpace=wrap;html=1;fontStyle=0;fontSize=14;" vertex="1" parent="ssmvnQJbBFKJemoLIA-i-16">
          <mxGeometry x="40" y="120" width="110" height="80" as="geometry" />
        </mxCell>
        <mxCell id="ssmvnQJbBFKJemoLIA-i-18" value="不通过" style="text;html=1;align=center;verticalAlign=middle;resizable=0;points=[];autosize=1;fontSize=14;" vertex="1" parent="ssmvnQJbBFKJemoLIA-i-16">
          <mxGeometry x="104" y="388" width="60" height="20" as="geometry" />
        </mxCell>
        <mxCell id="ssmvnQJbBFKJemoLIA-i-19" value="DONE" style="swimlane;html=1;startSize=20;" vertex="1" parent="ssmvnQJbBFKJemoLIA-i-1">
          <mxGeometry x="768" y="20" width="192" height="730" as="geometry" />
        </mxCell>
        <mxCell id="ssmvnQJbBFKJemoLIA-i-20" value="&lt;span style=&quot;font-size: 14px;&quot;&gt;完成&lt;/span&gt;" style="ellipse;whiteSpace=wrap;html=1;aspect=fixed;fontStyle=0;fontSize=14;" vertex="1" parent="ssmvnQJbBFKJemoLIA-i-19">
          <mxGeometry x="56" y="120" width="80" height="80" as="geometry" />
        </mxCell>
        <mxCell id="ssmvnQJbBFKJemoLIA-i-21" style="edgeStyle=orthogonalEdgeStyle;rounded=0;orthogonalLoop=1;jettySize=auto;html=1;exitX=1;exitY=0.5;exitDx=0;exitDy=0;entryX=0;entryY=0.5;entryDx=0;entryDy=0;" edge="1" parent="ssmvnQJbBFKJemoLIA-i-1" source="ssmvnQJbBFKJemoLIA-i-9" target="ssmvnQJbBFKJemoLIA-i-14">
          <mxGeometry relative="1" as="geometry" />
        </mxCell>
        <mxCell id="ssmvnQJbBFKJemoLIA-i-22" style="edgeStyle=orthogonalEdgeStyle;rounded=0;orthogonalLoop=1;jettySize=auto;html=1;exitX=1;exitY=0.5;exitDx=0;exitDy=0;entryX=0;entryY=0.5;entryDx=0;entryDy=0;" edge="1" parent="ssmvnQJbBFKJemoLIA-i-1" source="ssmvnQJbBFKJemoLIA-i-14" target="ssmvnQJbBFKJemoLIA-i-17">
          <mxGeometry relative="1" as="geometry" />
        </mxCell>
        <mxCell id="ssmvnQJbBFKJemoLIA-i-23" style="edgeStyle=orthogonalEdgeStyle;rounded=0;orthogonalLoop=1;jettySize=auto;html=1;exitX=1;exitY=0.5;exitDx=0;exitDy=0;entryX=0;entryY=0.5;entryDx=0;entryDy=0;" edge="1" parent="ssmvnQJbBFKJemoLIA-i-1" source="ssmvnQJbBFKJemoLIA-i-17" target="ssmvnQJbBFKJemoLIA-i-20">
          <mxGeometry relative="1" as="geometry" />
        </mxCell>
        <mxCell id="ssmvnQJbBFKJemoLIA-i-24" style="edgeStyle=orthogonalEdgeStyle;rounded=0;orthogonalLoop=1;jettySize=auto;html=1;exitX=1;exitY=0.5;exitDx=0;exitDy=0;entryX=0;entryY=0.5;entryDx=0;entryDy=0;fontSize=14;" edge="1" parent="ssmvnQJbBFKJemoLIA-i-1" source="ssmvnQJbBFKJemoLIA-i-6" target="ssmvnQJbBFKJemoLIA-i-11">
          <mxGeometry relative="1" as="geometry" />
        </mxCell>
        <mxCell id="ssmvnQJbBFKJemoLIA-i-25" style="edgeStyle=orthogonalEdgeStyle;rounded=0;orthogonalLoop=1;jettySize=auto;html=1;exitX=0.5;exitY=1;exitDx=0;exitDy=0;fontSize=14;entryX=0;entryY=0.5;entryDx=0;entryDy=0;" edge="1" parent="ssmvnQJbBFKJemoLIA-i-1" source="ssmvnQJbBFKJemoLIA-i-14" target="ssmvnQJbBFKJemoLIA-i-4">
          <mxGeometry relative="1" as="geometry">
            <mxPoint x="270" y="480" as="targetPoint" />
            <Array as="points">
              <mxPoint x="481" y="470" />
              <mxPoint x="19" y="470" />
              <mxPoint x="19" y="170" />
            </Array>
          </mxGeometry>
        </mxCell>
        <mxCell id="ssmvnQJbBFKJemoLIA-i-26" style="edgeStyle=orthogonalEdgeStyle;rounded=0;orthogonalLoop=1;jettySize=auto;html=1;exitX=0.5;exitY=1;exitDx=0;exitDy=0;entryX=0;entryY=0.5;entryDx=0;entryDy=0;fontSize=14;" edge="1" parent="ssmvnQJbBFKJemoLIA-i-1" source="ssmvnQJbBFKJemoLIA-i-17" target="ssmvnQJbBFKJemoLIA-i-4">
          <mxGeometry relative="1" as="geometry">
            <Array as="points">
              <mxPoint x="671" y="470" />
              <mxPoint x="19" y="470" />
              <mxPoint x="19" y="170" />
            </Array>
          </mxGeometry>
        </mxCell>
        <mxCell id="ssmvnQJbBFKJemoLIA-i-27" style="edgeStyle=orthogonalEdgeStyle;rounded=0;orthogonalLoop=1;jettySize=auto;html=1;exitX=0.5;exitY=1;exitDx=0;exitDy=0;entryX=0;entryY=0.5;entryDx=0;entryDy=0;fontSize=14;" edge="1" parent="ssmvnQJbBFKJemoLIA-i-1" source="ssmvnQJbBFKJemoLIA-i-11" target="ssmvnQJbBFKJemoLIA-i-4">
          <mxGeometry relative="1" as="geometry">
            <Array as="points">
              <mxPoint x="293" y="470" />
              <mxPoint x="19" y="470" />
              <mxPoint x="19" y="170" />
            </Array>
          </mxGeometry>
        </mxCell>
      </root>
    </mxGraphModel>
  </diagram>
</mxfile>
